<svg aria-hidden="true" style="position: absolute; width: 0; height: 0; overflow: hidden;" version="1.1"
     xmlns="http://www.w3.org/2000/svg">
<defs>
<symbol id="icon-thumbUp" viewBox="0 0 35 32">
<path d="M12.696 31.478h14.087c0.003 0 0.007 0 0.011 0 1.284 0 2.387-0.779 2.861-1.889l0.008-0.020 4.727-11.035c0.139-0.338 0.219-0.731 0.219-1.142v-3.13c0-1.722-1.409-3.13-3.13-3.13h-9.877l1.487-7.153 0.047-0.501c0-0.642-0.266-1.237-0.689-1.66l-1.661-1.643-10.313 10.315c-0.561 0.563-0.908 1.339-0.908 2.196 0 0.004 0 0.007 0 0.011v-0.001 15.652c0 1.722 1.409 3.13 3.13 3.13zM12.696 12.696l6.793-6.793-2.097 8.358h14.087v3.13l-4.696 10.957h-14.087v-15.652zM0.174 12.696h6.261v18.783h-6.261v-18.783z"></path>
</symbol>
<symbol id="icon-quotes" viewBox="0 0 40 32">
<path fill="#ff6b08" style="fill: var(--color2, #ff6b08)" d="M35.552 1.448l0.995 1.546c-6.845 4.49-10.267 8.979-10.267 13.469 0 2.282 0.992 3.606 2.981 3.974l4.637-4.306c1.472 0.515 2.797 1.472 3.974 2.87 1.251 1.325 1.877 3.054 1.877 5.189s-0.848 3.974-2.539 5.52c-1.693 1.472-3.938 2.208-6.736 2.208-2.722 0-5.003-0.92-6.843-2.76-1.766-1.914-2.65-4.526-2.65-7.838 0-7.213 4.858-13.837 14.573-19.872zM14.8 1.448l0.992 1.546c-6.843 4.49-10.266 8.979-10.266 13.469 0 2.282 0.992 3.606 2.981 3.974l4.637-4.306c1.472 0.515 2.797 1.472 3.974 2.87 1.251 1.325 1.877 3.054 1.877 5.189s-0.848 3.974-2.539 5.52c-1.693 1.472-3.938 2.208-6.736 2.208-2.722 0-5.003-0.92-6.843-2.76-1.768-1.914-2.653-4.526-2.653-7.838 0-7.213 4.858-13.837 14.573-19.872z"></path>
</symbol>
<symbol id="icon-perpendicularArrow" viewBox="0 0 27 32">
<path fill="#ff6b08" style="fill: var(--color2, #ff6b08)" d="M22.907 22.883c-0.061-0.304-0.312-0.448-0.493-0.64-1.315-1.387-2.651-2.765-3.971-4.157-0.56-0.589-0.613-1.221-0.168-1.669 0.443-0.448 1.061-0.408 1.608 0.16 2.107 2.187 4.211 4.381 6.307 6.579 0.643 0.675 0.635 1.147-0.013 1.829-2.080 2.181-4.163 4.357-6.253 6.525-0.576 0.597-1.139 0.643-1.608 0.171-0.467-0.475-0.397-1.085 0.16-1.672 1.301-1.371 2.616-2.733 3.92-4.104 0.184-0.192 0.427-0.339 0.499-0.643-0.205-0.211-0.461-0.112-0.688-0.112-6.869-0.008-13.741-0.011-20.619-0.011-1.301 0-1.579-0.293-1.579-1.653v-21.819c-0.005-0.079-0.009-0.172-0.009-0.265 0-0.174 0.011-0.346 0.032-0.515l-0.002 0.020c0.112-0.56 0.453-0.917 1.016-0.907 0.56 0.011 0.893 0.365 0.997 0.931 0.027 0.227 0.029 0.453 0.016 0.683 0 6.867 0.011 13.733-0.011 20.589 0 0.651 0.176 0.8 0.773 0.797 6.453-0.021 12.912-0.013 19.368-0.016 0.248 0.011 0.507 0.099 0.72-0.101z"></path>
</symbol>
<symbol id="icon-orangeStar" viewBox="0 0 34 32">
<path fill="none" stroke="#ff6b08" style="stroke: var(--color2, #ff6b08)" stroke-linejoin="miter" stroke-linecap="butt" stroke-miterlimit="4" stroke-width="2" d="M17 3.236l3.090 9.51h10l-8.090 5.878 0.224 0.692 2.866 8.82-8.090-5.878-0.588 0.426-7.502 5.452 3.090-9.512-0.588-0.424-7.502-5.454h10l0.224-0.69 2.866-8.82z"></path>
</symbol>
<symbol id="icon-home" viewBox="0 0 38 32">
<path style="" d="M18.824 5.064l9.412 8.471v14.701h-3.765v-11.294h-11.294v11.294h-3.765v-14.701l9.412-8.471zM18.824 0l-18.824 16.941h5.647v15.059h11.294v-11.294h3.765v11.294h11.294v-15.059h5.647l-18.824-16.941z"></path>
</symbol>
<symbol id="icon-greyStar" viewBox="0 0 34 32">
<path fill="none" stroke="#a6abb9" style="stroke: var(--color1, #a6abb9)" stroke-linejoin="miter" stroke-linecap="butt" stroke-miterlimit="4" stroke-width="2" d="M17 3.236l3.090 9.51h10l-8.090 5.878 0.224 0.692 2.866 8.82-8.090-5.878-0.588 0.426-7.502 5.452 3.090-9.512-0.588-0.424-7.502-5.454h10l0.224-0.69 2.866-8.82z"></path>
</symbol>
<symbol id="icon-flag" viewBox="0 0 28 32">
<path fill="#a6abb9" style="fill: var(--color1, #a6abb9)" d="M13.854 3.765l0.753 3.765h9.864v11.294h-6.325l-0.753-3.765h-13.628v-11.294h10.089zM16.941 0h-16.941v32h3.765v-13.176h10.541l0.753 3.765h13.176v-18.824h-10.541l-0.753-3.765z"></path>
</symbol>
<symbol id="icon-delete" viewBox="0 0 25 32">
<path fill="#a6abb9" style="fill: var(--color1, #a6abb9)" d="M19.556 10.667v17.778h-14.222v-17.778h14.222zM16.889 0h-8.889l-1.778 1.778h-6.222v3.556h24.889v-3.556h-6.222l-1.778-1.778zM23.111 7.111h-21.333v21.333c0 1.956 1.6 3.556 3.556 3.556h14.222c1.956 0 3.556-1.6 3.556-3.556v-21.333z"></path>
</symbol>
<symbol id="icon-checkMark" viewBox="0 0 48 32">
<path fill="#ff6b08" style="fill: var(--color2, #ff6b08)" d="M47.8 4.772l-29.76 27.048c-0.126 0.11-0.291 0.176-0.472 0.176s-0.346-0.067-0.473-0.177l0.001 0.001-16.9-15.36c-0.12-0.105-0.195-0.259-0.195-0.43s0.075-0.325 0.194-0.429l0.001-0.001 4.108-3.732c0.126-0.111 0.292-0.178 0.474-0.178s0.348 0.067 0.475 0.179l-0.001-0.001 12.32 11.2 25.176-22.892c0.126-0.11 0.291-0.176 0.472-0.176s0.346 0.067 0.473 0.177l-0.001-0.001 4.108 3.732c0.12 0.105 0.195 0.259 0.195 0.43s-0.075 0.325-0.194 0.429l-0.001 0.001z"></path>
</symbol>
<symbol id="icon-checkbox" viewBox="0 0 32 32">
<path fill="none" stroke="#a6abb9" style="stroke: var(--color1, #a6abb9)" stroke-linejoin="miter" stroke-linecap="butt" stroke-miterlimit="4" stroke-width="2.1333" d="M2.133 1.067h27.733c0.589 0 1.067 0.478 1.067 1.067v27.733c0 0.589-0.478 1.067-1.067 1.067h-27.733c-0.589 0-1.067-0.478-1.067-1.067v-27.733c0-0.589 0.478-1.067 1.067-1.067z"></path>
</symbol>
<symbol id="icon-book" viewBox="0 0 41 32">
<path fill="#a6abb9" style="fill: var(--color1, #a6abb9)" d="M37.647 0.941c-2.089-0.659-4.386-0.941-6.588-0.941-3.671 0-7.624 0.753-10.353 2.824-2.729-2.071-6.682-2.824-10.353-2.824s-7.624 0.753-10.353 2.824v27.576c0 0.471 0.471 0.941 0.941 0.941 0.188 0 0.282-0.094 0.471-0.094 2.541-1.224 6.212-2.071 8.941-2.071 3.671 0 7.624 0.753 10.353 2.824 2.541-1.6 7.153-2.824 10.353-2.824 3.106 0 6.306 0.565 8.941 1.976 0.188 0.094 0.282 0.094 0.471 0.094 0.471 0 0.941-0.471 0.941-0.941v-27.482c-1.129-0.847-2.353-1.412-3.765-1.882zM37.647 26.353c-2.071-0.659-4.329-0.941-6.588-0.941-3.2 0-7.812 1.224-10.353 2.824v-21.647c2.541-1.6 7.153-2.824 10.353-2.824 2.259 0 4.518 0.282 6.588 0.941v21.647z"></path>
<path fill="#a6abb9" style="fill: var(--color1, #a6abb9)" d="M31.059 11.294c1.656 0 3.256 0.169 4.706 0.489v-2.861c-1.487-0.282-3.087-0.452-4.706-0.452-3.2 0-6.099 0.546-8.471 1.562v3.125c2.127-1.205 5.082-1.864 8.471-1.864z"></path>
<path fill="#a6abb9" style="fill: var(--color1, #a6abb9)" d="M22.588 15.040v3.125c2.127-1.205 5.082-1.864 8.471-1.864 1.656 0 3.256 0.169 4.706 0.489v-2.861c-1.487-0.282-3.087-0.452-4.706-0.452-3.2 0-6.099 0.565-8.471 1.562z"></path>
<path fill="#a6abb9" style="fill: var(--color1, #a6abb9)" d="M31.059 18.504c-3.2 0-6.099 0.546-8.471 1.562v3.125c2.127-1.205 5.082-1.864 8.471-1.864 1.656 0 3.256 0.169 4.706 0.489v-2.861c-1.487-0.301-3.087-0.452-4.706-0.452z"></path>
</symbol>
<symbol id="icon-arrowToRight" viewBox="0 0 16 32">
<path fill="#ff6b08" style="fill: var(--color2, #ff6b08)" d="M15.664 15.12l-13.704-14.76c-0.2-0.223-0.489-0.362-0.81-0.362-0.323 0-0.614 0.141-0.813 0.365l-0.001 0.001c-0.209 0.232-0.337 0.54-0.337 0.878s0.128 0.647 0.338 0.879l-0.001-0.001 12.888 13.88-12.888 13.88c-0.209 0.232-0.337 0.54-0.337 0.878s0.128 0.646 0.338 0.879l-0.001-0.001c0.224 0.24 0.52 0.364 0.812 0.364 0.296 0 0.588-0.12 0.812-0.36l13.704-14.76c0.208-0.229 0.336-0.534 0.336-0.869 0-0.004-0-0.008-0-0.011v0.001c0-0.003 0-0.007 0-0.011 0-0.335-0.128-0.641-0.337-0.87l0.001 0.001z"></path>
</symbol>
<symbol id="icon-arrowBack" viewBox="0 0 64 32">
<path fill="#ff6b08" style="fill: var(--color2, #ff6b08)" d="M0.733 17.827l13.067 13.421c0.446 0.463 1.071 0.751 1.763 0.751 0.696 0 1.324-0.291 1.77-0.758l0.001-0.001c0.451-0.473 0.729-1.115 0.729-1.821 0-0.711-0.281-1.356-0.738-1.83l0.001 0.001-8.771-9.008h52.944c1.381 0 2.501-1.157 2.501-2.581s-1.12-2.581-2.501-2.581h-52.941l8.773-9.008c0.454-0.473 0.734-1.117 0.734-1.827 0-0.708-0.279-1.351-0.732-1.825l0.001 0.001c-0.446-0.469-1.075-0.76-1.772-0.76-0.693 0-1.318 0.288-1.763 0.751l-0.001 0.001-13.064 13.421c-0.454 0.473-0.734 1.117-0.734 1.827s0.28 1.353 0.735 1.828l-0.001-0.001z"></path>
</symbol>
<symbol id="icon-arrowMore" viewBox="0 0 64 32">
<path  style="" d="M0.733 17.827l13.067 13.421c0.446 0.463 1.071 0.751 1.763 0.751 0.696 0 1.324-0.291 1.77-0.758l0.001-0.001c0.451-0.473 0.729-1.115 0.729-1.821 0-0.711-0.281-1.356-0.738-1.83l0.001 0.001-8.771-9.008h52.944c1.381 0 2.501-1.157 2.501-2.581s-1.12-2.581-2.501-2.581h-52.941l8.773-9.008c0.454-0.473 0.734-1.117 0.734-1.827 0-0.708-0.279-1.351-0.732-1.825l0.001 0.001c-0.446-0.469-1.075-0.76-1.772-0.76-0.693 0-1.318 0.288-1.763 0.751l-0.001 0.001-13.064 13.421c-0.454 0.473-0.734 1.117-0.734 1.827s0.28 1.353 0.735 1.828l-0.001-0.001z"></path>
</symbol>
<symbol id="icon-polygon" viewBox="0 0 69 32">
<path d="M34.667 32l-30.022-28h60.045l-30.022 28z"></path>
</symbol>
<symbol id="icon-calendar" viewBox="0 0 32 32">
<path fill="#a6abb9" style="fill: var(--color1, #a6abb9)" d="M28.25 2.5h-1.5v-2.5h-2.5v2.5h-16.5v-2.5h-2.5v2.5h-1.5c-2.068 0-3.75 1.682-3.75 3.75v22c0 2.068 1.682 3.75 3.75 3.75h24.5c2.068 0 3.75-1.682 3.75-3.75v-22c0-2.068-1.682-3.75-3.75-3.75zM29.5 28.25c0 0.689-0.561 1.25-1.25 1.25h-24.5c-0.689 0-1.25-0.561-1.25-1.25v-16.5h27v16.5zM29.5 9.25h-27v-3c0-0.689 0.561-1.25 1.25-1.25h1.5v2.5h2.5v-2.5h16.5v2.5h2.5v-2.5h1.5c0.689 0 1.25 0.561 1.25 1.25v3z"></path>
</symbol>
<symbol id="icon-more" viewBox="0 0 32 32">
<path fill="#ff6b08" style="fill: var(--color1, #ff6b08)" d="M29.867 13.867c0 7.658-6.208 13.867-13.867 13.867s-13.867-6.208-13.867-13.867c0-7.658 6.208-13.867 13.867-13.867s13.867 6.208 13.867 13.867z"></path>
<path fill="#fff" style="fill: var(--color2, #fff)" d="M19.84 13.44h-3.413v-3.413c0-0.235-0.191-0.427-0.427-0.427s-0.427 0.191-0.427 0.427v3.413h-3.413c-0.235 0-0.427 0.191-0.427 0.427s0.191 0.427 0.427 0.427h3.413v3.413c0 0.236 0.191 0.427 0.427 0.427s0.427-0.191 0.427-0.427v-3.413h3.413c0.236 0 0.427-0.191 0.427-0.427s-0.191-0.427-0.427-0.427z"></path>
</symbol>
<symbol id="icon-book-no-color" viewBox="0 0 41 32">
<path d="M37.647 0.941c-2.089-0.659-4.386-0.941-6.588-0.941-3.671 0-7.624 0.753-10.353 2.824-2.729-2.071-6.682-2.824-10.353-2.824s-7.624 0.753-10.353 2.824v27.576c0 0.471 0.471 0.941 0.941 0.941 0.188 0 0.282-0.094 0.471-0.094 2.541-1.224 6.212-2.071 8.941-2.071 3.671 0 7.624 0.753 10.353 2.824 2.541-1.6 7.153-2.824 10.353-2.824 3.106 0 6.306 0.565 8.941 1.976 0.188 0.094 0.282 0.094 0.471 0.094 0.471 0 0.941-0.471 0.941-0.941v-27.482c-1.129-0.847-2.353-1.412-3.765-1.882zM37.647 26.353c-2.071-0.659-4.329-0.941-6.588-0.941-3.2 0-7.812 1.224-10.353 2.824v-21.647c2.541-1.6 7.153-2.824 10.353-2.824 2.259 0 4.518 0.282 6.588 0.941v21.647z"></path>
<path d="M31.059 11.294c1.656 0 3.256 0.169 4.706 0.489v-2.861c-1.487-0.282-3.087-0.452-4.706-0.452-3.2 0-6.099 0.546-8.471 1.562v3.125c2.127-1.205 5.082-1.864 8.471-1.864z"></path>
<path d="M22.588 15.040v3.125c2.127-1.205 5.082-1.864 8.471-1.864 1.656 0 3.256 0.169 4.706 0.489v-2.861c-1.487-0.282-3.087-0.452-4.706-0.452-3.2 0-6.099 0.565-8.471 1.562z"></path>
<path d="M31.059 18.504c-3.2 0-6.099 0.546-8.471 1.562v3.125c2.127-1.205 5.082-1.864 8.471-1.864 1.656 0 3.256 0.169 4.706 0.489v-2.861c-1.487-0.301-3.087-0.452-4.706-0.452z"></path>
</symbol>
<symbol id="icon-checkbox-color" viewBox="0 0 32 32">
<path fill="none" stroke="#ff6b08" style="stroke: var(--color1, #ff6b08)" stroke-linejoin="miter" stroke-linecap="butt" stroke-miterlimit="4" stroke-width="2.1333" d="M2.133 1.067h27.733c0.589 0 1.067 0.478 1.067 1.067v27.733c0 0.589-0.478 1.067-1.067 1.067h-27.733c-0.589 0-1.067-0.478-1.067-1.067v-27.733c0-0.589 0.478-1.067 1.067-1.067z"></path>
<path fill="#ff6b08" style="fill: var(--color1, #ff6b08)" d="M29.762 11.078l-15.872 14.426c-0.14 0.127-0.366 0.127-0.506 0l-9.012-8.191c-0.139-0.127-0.139-0.332 0-0.459l2.19-1.99c0.14-0.127 0.366-0.127 0.506 0l6.57 5.971 13.43-12.206c0.14-0.127 0.366-0.127 0.506 0l2.189 1.99c0.14 0.127 0.14 0.332 0 0.46z"></path>
</symbol>
</defs>
</svg>
